<?xml version="1.0" encoding="UTF-8"?>
<!DOCTYPE svg PUBLIC "-//W3C//DTD SVG 1.1//EN" "http://www.w3.org/Graphics/SVG/1.1/DTD/svg11.dtd">
<svg xmlns="http://www.w3.org/2000/svg" version="1.1" width="1131px" height="697px" style="shape-rendering:geometricPrecision; text-rendering:geometricPrecision; image-rendering:optimizeQuality; fill-rule:evenodd; clip-rule:evenodd" xmlns:xlink="http://www.w3.org/1999/xlink">
<g><path style="opacity:0.765" fill="#bc5307" d="M 68.5,-0.5 C 396.833,-0.5 725.167,-0.5 1053.5,-0.5C 1053.5,-0.166667 1053.5,0.166667 1053.5,0.5C 725.666,0.166837 398,0.50017 70.5,1.5C 67.1869,2.04482 63.8536,2.54482 60.5,3C 55.1898,6.23819 49.5231,8.40486 43.5,9.5C 51.208,4.59746 59.5413,1.26413 68.5,-0.5 Z"/></g>
<g><path style="opacity:0.898" fill="#e05c00" d="M 70.5,1.5 C 398,0.50017 725.666,0.166837 1053.5,0.5C 1053.83,1.16667 1054.17,1.83333 1054.5,2.5C 726.54,1.5014 398.54,1.16807 70.5,1.5 Z"/></g>
<g><path style="opacity:0.255" fill="#352e29" d="M 1053.5,0.5 C 1053.5,0.166667 1053.5,-0.166667 1053.5,-0.5C 1058.5,-0.5 1063.5,-0.5 1068.5,-0.5C 1078.68,3.84511 1088.68,8.67845 1098.5,14C 1104,19.5 1109.5,25 1115,30.5C 1120.98,40.1219 1126.14,50.1219 1130.5,60.5C 1130.5,62.8333 1130.5,65.1667 1130.5,67.5C 1129.17,64.5 1127.83,61.5 1126.5,58.5C 1126.66,57.1266 1126.49,55.7932 1126,54.5C 1122.57,48.5912 1119.41,42.5912 1116.5,36.5C 1115.93,34.7446 1115.09,33.0779 1114,31.5C 1108.5,26 1103,20.5 1097.5,15C 1095.56,13.0972 1093.23,12.2639 1090.5,12.5C 1083.71,9.53112 1077.04,6.36446 1070.5,3C 1065.01,1.11146 1059.34,0.278128 1053.5,0.5 Z"/></g>
<g><path style="opacity:0.965" fill="#f16506" d="M 70.5,1.5 C 398.54,1.16807 726.54,1.5014 1054.5,2.5C 1059.88,3.0059 1065.21,3.83923 1070.5,5C 1078.2,9.1805 1085.86,13.3472 1093.5,17.5C 1084.08,13.1261 1074.41,9.29275 1064.5,6C 1060.38,5.85681 1056.38,5.19014 1052.5,4C 725.819,3.83128 399.153,3.33128 72.5,2.5C 64.2664,4.96903 56.2664,8.1357 48.5,12C 46.1667,12.3333 43.8333,12.6667 41.5,13C 34.9215,19.5785 28.2548,26.2452 21.5,33C 20.5,33.3333 19.5,33.6667 18.5,34C 16.3048,37.3594 13.6381,40.1928 10.5,42.5C 11.6693,39.4887 13.336,36.822 15.5,34.5C 19.6644,31.1684 23.3311,27.335 26.5,23C 30.7532,21.115 34.0865,18.2817 36.5,14.5C 38.3603,13.0613 40.027,11.3947 41.5,9.5C 42.1667,9.5 42.8333,9.5 43.5,9.5C 49.5231,8.40486 55.1898,6.23819 60.5,3C 63.8536,2.54482 67.1869,2.04482 70.5,1.5 Z"/></g>
<g><path style="opacity:1" fill="#f96800" d="M 1093.5,17.5 C 1095.34,18.8111 1097.34,19.9778 1099.5,21C 1104.04,25.7033 1108.7,30.2033 1113.5,34.5C 1113.34,35.8734 1113.51,37.2068 1114,38.5C 1117.23,41.6475 1119.4,45.3142 1120.5,49.5C 1121.49,54.4847 1123.32,59.1513 1126,63.5C 1126.23,68.3272 1127.06,72.9939 1128.5,77.5C 1128.67,258.5 1128.5,439.5 1128,620.5C 1126.68,622.25 1126.18,624.25 1126.5,626.5C 1126.58,630.897 1126.08,635.23 1125,639.5C 1122.25,645.325 1119.25,650.992 1116,656.5C 1115.51,657.793 1115.34,659.127 1115.5,660.5C 1114.83,661.5 1114.17,662.5 1113.5,663.5C 1107.5,667.5 1102.5,672.5 1098.5,678.5C 1096.17,680.667 1093.5,682.334 1090.5,683.5C 1088.47,683.338 1086.47,683.505 1084.5,684C 1075.14,690.17 1064.81,693.837 1053.5,695C 815.833,695.667 578.167,695.667 340.5,695C 250.557,693.508 160.557,693.008 70.5,693.5C 65.9229,693.318 61.9229,691.818 58.5,689C 55.854,688.503 53.1873,688.336 50.5,688.5C 50.4894,686.983 49.8228,685.816 48.5,685C 43.3481,682.915 38.6815,680.249 34.5,677C 26.477,668.806 18.477,660.973 10.5,653.5C 9.89022,652.609 9.55688,651.609 9.5,650.5C 8.17383,643.525 6.00716,636.859 3,630.5C 2.79228,626.082 2.12562,621.749 1,617.5C 0.333333,437.5 0.333333,257.5 1,77.5C 2.14262,69.567 4.14262,61.9004 7,54.5C 7.49742,51.854 7.66409,49.1873 7.5,46.5C 7.73758,44.5956 8.73758,43.2623 10.5,42.5C 13.6381,40.1928 16.3048,37.3594 18.5,34C 19.5,33.6667 20.5,33.3333 21.5,33C 28.2548,26.2452 34.9215,19.5785 41.5,13C 43.8333,12.6667 46.1667,12.3333 48.5,12C 56.2664,8.1357 64.2664,4.96903 72.5,2.5C 399.153,3.33128 725.819,3.83128 1052.5,4C 1056.38,5.19014 1060.38,5.85681 1064.5,6C 1074.41,9.29275 1084.08,13.1261 1093.5,17.5 Z M 1043.5,90.5 C 1042.67,262.333 1042.17,434.333 1042,606.5C 1041.5,607 1041,607.5 1040.5,608C 984.501,608.5 928.501,608.667 872.5,608.5C 871.791,607.596 870.791,607.263 869.5,607.5C 695.806,606.831 521.973,606.165 348,605.5C 346.174,606.01 346.007,606.844 347.5,608C 318.167,608.667 288.833,608.667 259.5,608C 259.554,606.649 259.054,605.482 258,604.5C 256.941,604.63 256.108,605.13 255.5,606C 199.833,606.667 144.167,606.667 88.5,606C 88,605.5 87.5,605 87,604.5C 86.5,432.167 86.3333,259.834 86.5,87.5C 405.333,86.5002 724.333,86.1668 1043.5,86.5C 1043.5,87.8333 1043.5,89.1667 1043.5,90.5 Z"/></g>
<g><path style="opacity:0.176" fill="#23201f" d="M 57.5,-0.5 C 61.1667,-0.5 64.8333,-0.5 68.5,-0.5C 59.5413,1.26413 51.208,4.59746 43.5,9.5C 42.8333,9.5 42.1667,9.5 41.5,9.5C 35.2713,12.0721 30.2713,16.0721 26.5,21.5C 24.5,22.8333 22.8333,24.5 21.5,26.5C 18.9438,27.5434 16.7772,29.2101 15,31.5C 12.8816,36.0941 10.0483,40.0941 6.5,43.5C 14.8823,28.2823 26.549,16.1156 41.5,7C 47.014,4.7413 52.3473,2.2413 57.5,-0.5 Z"/></g>
<g><path style="opacity:0.902" fill="#c35508" d="M 1053.5,0.5 C 1059.34,0.278128 1065.01,1.11146 1070.5,3C 1077.04,6.36446 1083.71,9.53112 1090.5,12.5C 1099.45,18.4515 1107.12,25.7849 1113.5,34.5C 1108.7,30.2033 1104.04,25.7033 1099.5,21C 1097.34,19.9778 1095.34,18.8111 1093.5,17.5C 1085.86,13.3472 1078.2,9.1805 1070.5,5C 1065.21,3.83923 1059.88,3.0059 1054.5,2.5C 1054.17,1.83333 1053.83,1.16667 1053.5,0.5 Z"/></g>
<g><path style="opacity:0.506" fill="#75543d" d="M 41.5,9.5 C 40.027,11.3947 38.3603,13.0613 36.5,14.5C 32.846,16.3311 29.5127,18.6644 26.5,21.5C 30.2713,16.0721 35.2713,12.0721 41.5,9.5 Z"/></g>
<g><path style="opacity:0.467" fill="#695344" d="M 1090.5,12.5 C 1093.23,12.2639 1095.56,13.0972 1097.5,15C 1103,20.5 1108.5,26 1114,31.5C 1115.09,33.0779 1115.93,34.7446 1116.5,36.5C 1115.5,35.8333 1114.5,35.1667 1113.5,34.5C 1107.12,25.7849 1099.45,18.4515 1090.5,12.5 Z"/></g>
<g><path style="opacity:0.776" fill="#b04f0b" d="M 36.5,14.5 C 34.0865,18.2817 30.7532,21.115 26.5,23C 23.3311,27.335 19.6644,31.1684 15.5,34.5C 17.0908,31.5691 19.0908,28.9024 21.5,26.5C 22.8333,24.5 24.5,22.8333 26.5,21.5C 29.5127,18.6644 32.846,16.3311 36.5,14.5 Z"/></g>
<g><path style="opacity:0.875" fill="#b9520b" d="M 1113.5,34.5 C 1114.5,35.1667 1115.5,35.8333 1116.5,36.5C 1119.41,42.5912 1122.57,48.5912 1126,54.5C 1126.49,55.7932 1126.66,57.1266 1126.5,58.5C 1124.75,55.328 1122.75,52.328 1120.5,49.5C 1119.4,45.3142 1117.23,41.6475 1114,38.5C 1113.51,37.2068 1113.34,35.8734 1113.5,34.5 Z"/></g>
<g><path style="opacity:0.145" fill="#443830" d="M 21.5,26.5 C 19.0908,28.9024 17.0908,31.5691 15.5,34.5C 13.336,36.822 11.6693,39.4887 10.5,42.5C 8.73758,43.2623 7.73758,44.5956 7.5,46.5C 4.68629,52.7318 2.01962,59.0652 -0.5,65.5C -0.5,62.5 -0.5,59.5 -0.5,56.5C 2.39817,52.4734 4.73151,48.14 6.5,43.5C 10.0483,40.0941 12.8816,36.0941 15,31.5C 16.7772,29.2101 18.9438,27.5434 21.5,26.5 Z"/></g>
<g><path style="opacity:0.957" fill="#ec6300" d="M 1128.5,77.5 C 1129.67,258.666 1129.83,440 1129,621.5C 1128.24,623.315 1127.41,624.981 1126.5,626.5C 1126.18,624.25 1126.68,622.25 1128,620.5C 1128.5,439.5 1128.67,258.5 1128.5,77.5 Z"/></g>
<g><path style="opacity:0.878" fill="#d75901" d="M 1120.5,49.5 C 1122.75,52.328 1124.75,55.328 1126.5,58.5C 1127.83,61.5 1129.17,64.5 1130.5,67.5C 1130.5,254.5 1130.5,441.5 1130.5,628.5C 1127.75,636.677 1124.42,644.677 1120.5,652.5C 1118.83,655.167 1117.17,657.833 1115.5,660.5C 1115.34,659.127 1115.51,657.793 1116,656.5C 1119.25,650.992 1122.25,645.325 1125,639.5C 1126.08,635.23 1126.58,630.897 1126.5,626.5C 1127.41,624.981 1128.24,623.315 1129,621.5C 1129.83,440 1129.67,258.666 1128.5,77.5C 1127.06,72.9939 1126.23,68.3272 1126,63.5C 1123.32,59.1513 1121.49,54.4847 1120.5,49.5 Z"/></g>
<g><path style="opacity:0.898" fill="#db5a01" d="M 7.5,46.5 C 7.66409,49.1873 7.49742,51.854 7,54.5C 4.14262,61.9004 2.14262,69.567 1,77.5C 0.333333,257.5 0.333333,437.5 1,617.5C 2.12562,621.749 2.79228,626.082 3,630.5C 6.00716,636.859 8.17383,643.525 9.5,650.5C 4.61319,643.505 1.27985,635.839 -0.5,627.5C -0.5,440.167 -0.5,252.833 -0.5,65.5C 2.01962,59.0652 4.68629,52.7318 7.5,46.5 Z"/></g>
<g><path style="opacity:1" fill="#f1723a" d="M 258.5,85.5 C 200.5,85.5 142.5,85.5 84.5,85.5C 84.1667,85.5 83.8333,85.5 83.5,85.5C 83.9528,84.5416 84.6195,83.7083 85.5,83C 143.167,82.3333 200.833,82.3333 258.5,83C 259.598,83.7697 259.598,84.603 258.5,85.5 Z"/></g>
<g><path style="opacity:1" fill="#fa6e2b" d="M 1041.5,83.5 C 809.793,83.1686 578.127,83.502 346.5,84.5C 346.611,83.8826 346.944,83.3826 347.5,83C 579,82.167 810.334,82.3337 1041.5,83.5 Z"/></g>
<g><path style="opacity:1" fill="#fa855d" d="M 1041.5,83.5 C 1043.03,83.427 1044.03,84.0937 1044.5,85.5C 811.167,85.5 577.833,85.5 344.5,85.5C 344.842,84.6618 345.508,84.3284 346.5,84.5C 578.127,83.502 809.793,83.1686 1041.5,83.5 Z"/></g>
<g><path style="opacity:0.137" fill="#2d1b0f" d="M 84.5,85.5 C 142.5,85.5 200.5,85.5 258.5,85.5C 287.167,85.5 315.833,85.5 344.5,85.5C 577.833,85.5 811.167,85.5 1044.5,85.5C 1044.5,85.8333 1044.5,86.1667 1044.5,86.5C 1044.5,88.1667 1044.5,89.8333 1044.5,91.5C 1044.17,91.5 1043.83,91.5 1043.5,91.5C 1043.5,91.1667 1043.5,90.8333 1043.5,90.5C 1043.5,89.1667 1043.5,87.8333 1043.5,86.5C 724.333,86.1668 405.333,86.5002 86.5,87.5C 85.5003,259.999 85.167,432.666 85.5,605.5C 85.5,606.167 85.5,606.833 85.5,607.5C 85.1667,607.5 84.8333,607.5 84.5,607.5C 84.5,433.833 84.5,260.167 84.5,86.5C 84.5,86.1667 84.5,85.8333 84.5,85.5 Z"/></g>
<g><path style="opacity:1" fill="#fa6e2b" d="M 81.5,87.5 C 81.167,260.334 81.5003,433.001 82.5,605.5C 82.3284,606.492 82.6618,607.158 83.5,607.5C 83.5,608.167 83.5,608.833 83.5,609.5C 82.5416,609.047 81.7083,608.381 81,607.5C 80.1671,434 80.3338,260.666 81.5,87.5 Z"/></g>
<g><path style="opacity:1" fill="#fb9d84" d="M 84.5,86.5 C 84.5,260.167 84.5,433.833 84.5,607.5C 84.1667,607.5 83.8333,607.5 83.5,607.5C 82.6618,607.158 82.3284,606.492 82.5,605.5C 82.3333,432.833 82.5,260.166 83,87.5C 83.3826,86.944 83.8826,86.6107 84.5,86.5 Z"/></g>
<g><path style="opacity:1" fill="#fa7a4b" d="M 83.5,85.5 C 83.8333,85.5 84.1667,85.5 84.5,85.5C 84.5,85.8333 84.5,86.1667 84.5,86.5C 83.8826,86.6107 83.3826,86.944 83,87.5C 82.5,260.166 82.3333,432.833 82.5,605.5C 81.5003,433.001 81.167,260.334 81.5,87.5C 81.8333,86.5 82.5,85.8333 83.5,85.5 Z"/></g>
<g><path style="opacity:1" fill="#fc9c7d" d="M 1044.5,86.5 C 1045.17,86.8333 1045.83,87.1667 1046.5,87.5C 1046.83,261.861 1046.5,436.195 1045.5,610.5C 1045.17,610.5 1044.83,610.5 1044.5,610.5C 1044.5,437.5 1044.5,264.5 1044.5,91.5C 1044.5,89.8333 1044.5,88.1667 1044.5,86.5 Z"/></g>
<g><path style="opacity:1" fill="#fa7745" d="M 1046.5,87.5 C 1047.67,261.333 1047.83,435.333 1047,609.5C 1046.62,610.056 1046.12,610.389 1045.5,610.5C 1046.5,436.195 1046.83,261.861 1046.5,87.5 Z"/></g>
<g><path style="opacity:0.133" fill="#1b1b1b" d="M 1043.5,90.5 C 1043.5,90.8333 1043.5,91.1667 1043.5,91.5C 1043.67,263.5 1043.5,435.5 1043,607.5C 1042.5,608 1042,608.5 1041.5,609C 1034.84,609.5 1028.17,609.666 1021.5,609.5C 971.833,609.5 922.167,609.5 872.5,609.5C 872.5,609.167 872.5,608.833 872.5,608.5C 928.501,608.667 984.501,608.5 1040.5,608C 1041,607.5 1041.5,607 1042,606.5C 1042.17,434.333 1042.67,262.333 1043.5,90.5 Z"/></g>
<g><path style="opacity:0.447" fill="#716155" d="M 1043.5,91.5 C 1043.83,91.5 1044.17,91.5 1044.5,91.5C 1044.5,264.5 1044.5,437.5 1044.5,610.5C 1043.5,610.5 1042.5,610.5 1041.5,610.5C 1034.83,610.5 1028.17,610.5 1021.5,610.5C 1021.5,610.167 1021.5,609.833 1021.5,609.5C 1028.17,609.666 1034.84,609.5 1041.5,609C 1042,608.5 1042.5,608 1043,607.5C 1043.5,435.5 1043.67,263.5 1043.5,91.5 Z"/></g>
<g><path style="opacity:0.01" fill="#131313" d="M 238.5,174.5 C 244.5,178.5 249.5,183.5 253.5,189.5C 248.167,184.833 243.167,179.833 238.5,174.5 Z"/></g>
<g><path style="opacity:1" fill="#f96801" d="M 248.5,187.5 C 251.833,190.5 255.167,193.5 258.5,196.5C 280.217,219.218 302.55,241.218 325.5,262.5C 329.439,268.108 334.106,273.108 339.5,277.5C 341.5,279.833 343.5,282.167 345.5,284.5C 348.972,291.65 353.972,297.65 360.5,302.5C 367.914,310.917 375.914,318.584 384.5,325.5C 384.799,327.604 384.466,329.604 383.5,331.5C 369.581,343.737 357.248,357.07 346.5,371.5C 344.782,373.223 343.449,375.223 342.5,377.5C 342.5,378.167 342.167,378.5 341.5,378.5C 340.5,378.833 339.833,379.5 339.5,380.5C 338.833,381.833 337.833,382.833 336.5,383.5C 335.5,383.833 334.833,384.5 334.5,385.5C 328.167,392.5 321.5,399.167 314.5,405.5C 310.5,407.5 307.5,410.5 305.5,414.5C 303.167,417.5 300.5,420.167 297.5,422.5C 296.5,422.833 295.833,423.5 295.5,424.5C 294.5,426.167 293.167,427.5 291.5,428.5C 290.5,428.833 289.833,429.5 289.5,430.5C 283.5,437.167 277.167,443.5 270.5,449.5C 267.5,450.5 265.5,452.5 264.5,455.5C 262.5,455.5 261.5,456.5 261.5,458.5C 261.167,459.5 260.5,460.167 259.5,460.5C 258.5,460.5 257.5,460.5 256.5,460.5C 249.737,465.759 243.403,471.593 237.5,478C 236.5,478.667 235.5,478.667 234.5,478C 232.963,476.293 231.296,474.793 229.5,473.5C 213.469,455.803 196.802,438.803 179.5,422.5C 179.343,421.127 179.51,419.793 180,418.5C 188.671,410.995 196.838,402.995 204.5,394.5C 211.438,388.063 218.271,381.397 225,374.5C 225.49,373.207 225.657,371.873 225.5,370.5C 225.833,369.833 226.167,369.167 226.5,368.5C 227.167,368.167 227.833,367.833 228.5,367.5C 227.972,368.847 227.805,370.181 228,371.5C 239.414,360.086 250.748,348.752 262,337.5C 262.608,335.846 263.108,334.179 263.5,332.5C 264.355,331.469 265.022,330.303 265.5,329C 264.35,327.019 263.016,325.186 261.5,323.5C 261.513,317.323 258.513,313.156 252.5,311C 249.276,305.768 245.276,301.101 240.5,297C 235,295.5 231.5,292 230,286.5C 226.5,283.667 223,280.833 219.5,278C 214.668,270.335 208.334,264.168 200.5,259.5C 199.258,257.267 197.924,255.101 196.5,253C 192.244,249.955 188.077,246.788 184,243.5C 181.567,240.02 180.733,236.353 181.5,232.5C 182.766,231.91 184.099,231.41 185.5,231C 187.587,227.077 190.254,223.577 193.5,220.5C 194.5,220.5 195.5,220.5 196.5,220.5C 198.167,217.833 199.833,215.167 201.5,212.5C 203.882,210.785 205.882,208.785 207.5,206.5C 211.812,204.188 215.145,200.855 217.5,196.5C 219.833,194.833 221.833,192.833 223.5,190.5C 226.167,186.5 229.5,183.167 233.5,180.5C 237.107,177.425 239.44,178.258 240.5,183C 243.08,184.768 245.747,186.268 248.5,187.5 Z"/></g>
<g><path style="opacity:0.749" fill="#8c3b05" d="M 879.5,183.5 C 882.304,182.362 885.304,182.195 888.5,183C 889.056,183.383 889.389,183.883 889.5,184.5C 886.236,183.676 882.902,183.342 879.5,183.5 Z"/></g>
<g><path style="opacity:1" fill="#f66700" d="M 879.5,183.5 C 882.902,183.342 886.236,183.676 889.5,184.5C 907.167,201.5 924.5,218.833 941.5,236.5C 942.038,238.117 942.371,239.784 942.5,241.5C 913.188,271.146 883.854,300.812 854.5,330.5C 883.827,359.161 912.827,388.161 941.5,417.5C 942.038,419.117 942.371,420.784 942.5,422.5C 923.188,442.479 903.521,462.146 883.5,481.5C 833.346,430.513 782.68,380.013 731.5,330C 780.98,281.353 830.313,232.52 879.5,183.5 Z"/></g>
<g><path style="opacity:0.102" fill="#3b1e0c" d="M 258.5,194.5 C 280.806,217.14 303.139,239.806 325.5,262.5C 302.55,241.218 280.217,219.218 258.5,196.5C 258.5,195.833 258.5,195.167 258.5,194.5 Z"/></g>
<g><path style="opacity:0.62" fill="#9c480d" d="M 217.5,193.5 C 217.5,194.5 217.5,195.5 217.5,196.5C 213.5,199.167 210.167,202.5 207.5,206.5C 206.5,206.5 205.5,206.5 204.5,206.5C 208.5,201.833 212.833,197.5 217.5,193.5 Z"/></g>
<g><path style="opacity:1" fill="#f68159" d="M 217.5,196.5 C 215.145,200.855 211.812,204.188 207.5,206.5C 210.167,202.5 213.5,199.167 217.5,196.5 Z"/></g>
<g><path style="opacity:1" fill="#f67e4f" d="M 204.5,206.5 C 205.5,206.5 206.5,206.5 207.5,206.5C 205.882,208.785 203.882,210.785 201.5,212.5C 201.5,211.5 201.5,210.5 201.5,209.5C 202.167,208.167 203.167,207.167 204.5,206.5 Z"/></g>
<g><path style="opacity:0.624" fill="#9c480d" d="M 201.5,209.5 C 201.5,210.5 201.5,211.5 201.5,212.5C 198.167,214.5 195.5,217.167 193.5,220.5C 192.5,220.5 191.5,220.5 190.5,220.5C 193.833,216.5 197.5,212.833 201.5,209.5 Z"/></g>
<g><path style="opacity:1" fill="#f77e50" d="M 201.5,212.5 C 199.833,215.167 198.167,217.833 196.5,220.5C 195.5,220.5 194.5,220.5 193.5,220.5C 195.5,217.167 198.167,214.5 201.5,212.5 Z"/></g>
<g><path style="opacity:0.125" fill="#2f2925" d="M 238.5,174.5 C 243.167,179.833 248.167,184.833 253.5,189.5C 255.482,190.491 257.482,191.491 259.5,192.5C 259.137,193.183 258.804,193.85 258.5,194.5C 258.5,195.167 258.5,195.833 258.5,196.5C 255.167,193.5 251.833,190.5 248.5,187.5C 245.5,183.833 242.167,180.5 238.5,177.5C 237.686,175.727 236.352,175.227 234.5,176C 229.63,180.702 224.963,185.535 220.5,190.5C 219.167,191.167 218.167,192.167 217.5,193.5C 212.833,197.5 208.5,201.833 204.5,206.5C 203.167,207.167 202.167,208.167 201.5,209.5C 197.5,212.833 193.833,216.5 190.5,220.5C 189.167,221.167 188.167,222.167 187.5,223.5C 183.536,226.963 179.702,230.63 176,234.5C 175.227,236.352 175.727,237.686 177.5,238.5C 179.132,241.133 181.132,243.467 183.5,245.5C 185.088,248.759 187.088,251.759 189.5,254.5C 186.925,253.432 184.758,251.765 183,249.5C 180.897,246.28 178.564,243.28 176,240.5C 174,237.5 174,234.5 176,231.5C 194.651,212.57 213.484,193.736 232.5,175C 234.565,173.458 236.565,173.291 238.5,174.5 Z"/></g>
<g><path style="opacity:1" fill="#f58053" d="M 220.5,190.5 C 221.5,190.5 222.5,190.5 223.5,190.5C 221.833,192.833 219.833,194.833 217.5,196.5C 217.5,195.5 217.5,194.5 217.5,193.5C 218.167,192.167 219.167,191.167 220.5,190.5 Z"/></g>
<g><path style="opacity:0.62" fill="#92430c" d="M 238.5,177.5 C 235.715,176.916 234.048,177.916 233.5,180.5C 229.5,183.167 226.167,186.5 223.5,190.5C 222.5,190.5 221.5,190.5 220.5,190.5C 224.963,185.535 229.63,180.702 234.5,176C 236.352,175.227 237.686,175.727 238.5,177.5 Z"/></g>
<g><path style="opacity:0.871" fill="#c55a16" d="M 238.5,177.5 C 242.167,180.5 245.5,183.833 248.5,187.5C 245.747,186.268 243.08,184.768 240.5,183C 239.44,178.258 237.107,177.425 233.5,180.5C 234.048,177.916 235.715,176.916 238.5,177.5 Z"/></g>
<g><path style="opacity:1" fill="#f67945" d="M 190.5,220.5 C 191.5,220.5 192.5,220.5 193.5,220.5C 190.254,223.577 187.587,227.077 185.5,231C 184.099,231.41 182.766,231.91 181.5,232.5C 183.892,229.772 185.892,226.772 187.5,223.5C 188.167,222.167 189.167,221.167 190.5,220.5 Z"/></g>
<g><path style="opacity:0.62" fill="#99450a" d="M 187.5,223.5 C 185.892,226.772 183.892,229.772 181.5,232.5C 179.697,234.081 178.364,236.081 177.5,238.5C 175.727,237.686 175.227,236.352 176,234.5C 179.702,230.63 183.536,226.963 187.5,223.5 Z"/></g>
<g><path style="opacity:0.945" fill="#78340a" d="M 941.5,236.5 C 944.726,237.877 945.059,239.543 942.5,241.5C 942.371,239.784 942.038,238.117 941.5,236.5 Z"/></g>
<g><path style="opacity:1" fill="#f4c2b2" d="M 183.5,245.5 C 187.223,248.855 191.223,251.855 195.5,254.5C 196.362,255.766 197.029,257.099 197.5,258.5C 195.989,257.498 194.322,256.831 192.5,256.5C 191.5,255.833 190.5,255.167 189.5,254.5C 187.088,251.759 185.088,248.759 183.5,245.5 Z"/></g>
<g><path style="opacity:1" fill="#ddcbc2" d="M 197.5,259.5 C 202.193,263.861 206.859,268.195 211.5,272.5C 210.5,272.5 209.5,272.5 208.5,272.5C 206.809,271.136 205.142,269.803 203.5,268.5C 201.088,265.759 199.088,262.759 197.5,259.5 Z"/></g>
<g><path style="opacity:0.122" fill="#201e1c" d="M 192.5,256.5 C 194.322,256.831 195.989,257.498 197.5,258.5C 197.5,258.833 197.5,259.167 197.5,259.5C 199.088,262.759 201.088,265.759 203.5,268.5C 198.467,265.798 194.8,261.798 192.5,256.5 Z"/></g>
<g><path style="opacity:0.663" fill="#a18880" d="M 325.5,262.5 C 330.597,266.651 335.263,271.317 339.5,276.5C 339.5,276.833 339.5,277.167 339.5,277.5C 334.106,273.108 329.439,268.108 325.5,262.5 Z"/></g>
<g><path style="opacity:0.035" fill="#252220" d="M 208.5,272.5 C 209.5,272.5 210.5,272.5 211.5,272.5C 211.782,273.778 212.449,274.778 213.5,275.5C 215.088,278.759 217.088,281.759 219.5,284.5C 214.444,281.777 210.777,277.777 208.5,272.5 Z"/></g>
<g><path style="opacity:0.055" fill="#1c1816" d="M 339.5,276.5 C 356.098,290.097 371.431,305.097 385.5,321.5C 382.141,318.471 378.808,315.471 375.5,312.5C 365.765,301.737 356.098,292.404 346.5,284.5C 346.167,284.5 345.833,284.5 345.5,284.5C 343.5,282.167 341.5,279.833 339.5,277.5C 339.5,277.167 339.5,276.833 339.5,276.5 Z"/></g>
<g><path style="opacity:0.376" fill="#685d56" d="M 375.5,312.5 C 375.167,312.5 374.833,312.5 374.5,312.5C 369.5,307.833 364.5,303.167 359.5,298.5C 355.167,293.833 350.833,289.167 346.5,284.5C 356.098,292.404 365.765,301.737 375.5,312.5 Z"/></g>
<g><path style="opacity:1" fill="#e7b7a8" d="M 213.5,275.5 C 218.272,279.598 223.272,283.431 228.5,287C 229.337,288.011 229.67,289.178 229.5,290.5C 228.167,289.833 226.833,289.167 225.5,288.5C 223.5,287.167 221.5,285.833 219.5,284.5C 217.088,281.759 215.088,278.759 213.5,275.5 Z"/></g>
<g><path style="opacity:0.933" fill="#dd6e3b" d="M 345.5,284.5 C 345.833,284.5 346.167,284.5 346.5,284.5C 350.833,289.167 355.167,293.833 359.5,298.5C 359.833,299.833 360.167,301.167 360.5,302.5C 353.972,297.65 348.972,291.65 345.5,284.5 Z"/></g>
<g><path style="opacity:0.137" fill="#2d2724" d="M 225.5,288.5 C 226.833,289.167 228.167,289.833 229.5,290.5C 229.5,290.833 229.5,291.167 229.5,291.5C 229.5,292.5 229.5,293.5 229.5,294.5C 227.684,292.882 226.351,290.882 225.5,288.5 Z"/></g>
<g><path style="opacity:1" fill="#fa8e6a" d="M 181.5,232.5 C 180.733,236.353 181.567,240.02 184,243.5C 188.077,246.788 192.244,249.955 196.5,253C 197.924,255.101 199.258,257.267 200.5,259.5C 208.334,264.168 214.668,270.335 219.5,278C 223,280.833 226.5,283.667 230,286.5C 231.5,292 235,295.5 240.5,297C 245.276,301.101 249.276,305.768 252.5,311C 258.513,313.156 261.513,317.323 261.5,323.5C 260.833,323.5 260.167,323.5 259.5,323.5C 259.279,321.336 258.279,319.67 256.5,318.5C 253.167,314.5 249.5,310.833 245.5,307.5C 245.5,307.167 245.5,306.833 245.5,306.5C 244.999,303.845 243.666,301.678 241.5,300C 237.039,297.795 233.039,294.961 229.5,291.5C 229.5,291.167 229.5,290.833 229.5,290.5C 229.67,289.178 229.337,288.011 228.5,287C 223.272,283.431 218.272,279.598 213.5,275.5C 212.449,274.778 211.782,273.778 211.5,272.5C 206.859,268.195 202.193,263.861 197.5,259.5C 197.5,259.167 197.5,258.833 197.5,258.5C 197.029,257.099 196.362,255.766 195.5,254.5C 191.223,251.855 187.223,248.855 183.5,245.5C 181.132,243.467 179.132,241.133 177.5,238.5C 178.364,236.081 179.697,234.081 181.5,232.5 Z"/></g>
<g><path style="opacity:0.129" fill="#1d1d1d" d="M 229.5,294.5 C 232.167,295.833 234.167,297.833 235.5,300.5C 232.478,299.478 230.478,297.478 229.5,294.5 Z"/></g>
<g><path style="opacity:1" fill="#f5bfb0" d="M 229.5,291.5 C 233.039,294.961 237.039,297.795 241.5,300C 243.666,301.678 244.999,303.845 245.5,306.5C 243.411,304.746 241.078,303.413 238.5,302.5C 237.5,301.833 236.5,301.167 235.5,300.5C 234.167,297.833 232.167,295.833 229.5,294.5C 229.5,293.5 229.5,292.5 229.5,291.5 Z"/></g>
<g><path style="opacity:1" fill="#dfcbc1" d="M 245.5,307.5 C 249.5,310.833 253.167,314.5 256.5,318.5C 255.833,318.5 255.167,318.5 254.5,318.5C 253.29,318.068 252.29,317.401 251.5,316.5C 249.088,313.759 247.088,310.759 245.5,307.5 Z"/></g>
<g><path style="opacity:0.11" fill="#1e1c1a" d="M 238.5,302.5 C 241.078,303.413 243.411,304.746 245.5,306.5C 245.5,306.833 245.5,307.167 245.5,307.5C 247.088,310.759 249.088,313.759 251.5,316.5C 248.606,315.118 246.106,313.118 244,310.5C 242.727,307.403 240.893,304.736 238.5,302.5 Z"/></g>
<g><path style="opacity:1" fill="#dfc4b8" d="M 374.5,312.5 C 374.833,312.5 375.167,312.5 375.5,312.5C 378.808,315.471 382.141,318.471 385.5,321.5C 386.167,321.5 386.5,321.833 386.5,322.5C 386.5,323.167 386.167,323.5 385.5,323.5C 380.812,320.812 377.145,317.145 374.5,312.5 Z"/></g>
<g><path style="opacity:1" fill="#f38e6b" d="M 359.5,298.5 C 364.5,303.167 369.5,307.833 374.5,312.5C 377.145,317.145 380.812,320.812 385.5,323.5C 385.5,323.833 385.5,324.167 385.5,324.5C 384.833,324.5 384.5,324.833 384.5,325.5C 375.914,318.584 367.914,310.917 360.5,302.5C 360.167,301.167 359.833,299.833 359.5,298.5 Z"/></g>
<g><path style="opacity:0.122" fill="#231811" d="M 254.5,318.5 C 255.167,318.5 255.833,318.5 256.5,318.5C 258.279,319.67 259.279,321.336 259.5,323.5C 257.5,322.167 255.833,320.5 254.5,318.5 Z"/></g>
<g><path style="opacity:0.341" fill="#2c1706" d="M 259.5,323.5 C 260.167,323.5 260.833,323.5 261.5,323.5C 263.016,325.186 264.35,327.019 265.5,329C 265.022,330.303 264.355,331.469 263.5,332.5C 261.5,334.167 259.5,335.833 257.5,337.5C 257.196,336.85 256.863,336.183 256.5,335.5C 259.595,333.909 262.262,331.743 264.5,329C 262.627,327.296 260.96,325.463 259.5,323.5 Z"/></g>
<g><path style="opacity:0.041" fill="#0f0b08" d="M 386.5,322.5 C 389.424,325.056 390.09,328.056 388.5,331.5C 389.092,328.369 388.092,326.036 385.5,324.5C 385.5,324.167 385.5,323.833 385.5,323.5C 386.167,323.5 386.5,323.167 386.5,322.5 Z"/></g>
<g><path style="opacity:0.357" fill="#5a2a07" d="M 385.5,324.5 C 388.092,326.036 389.092,328.369 388.5,331.5C 388.167,331.5 387.833,331.5 387.5,331.5C 387.6,328.892 386.933,326.558 385.5,324.5 Z"/></g>
<g><path style="opacity:0.349" fill="#663a1b" d="M 386.5,332.5 C 383.167,336.5 379.5,340.167 375.5,343.5C 378.167,338.833 381.833,335.167 386.5,332.5 Z"/></g>
<g><path style="opacity:0.792" fill="#ba4f02" d="M 385.5,324.5 C 386.933,326.558 387.6,328.892 387.5,331.5C 386.833,331.5 386.5,331.833 386.5,332.5C 381.833,335.167 378.167,338.833 375.5,343.5C 374.5,343.833 373.833,344.5 373.5,345.5C 368.93,346.948 365.93,349.948 364.5,354.5C 358.5,360.167 352.5,365.833 346.5,371.5C 357.248,357.07 369.581,343.737 383.5,331.5C 384.466,329.604 384.799,327.604 384.5,325.5C 384.5,324.833 384.833,324.5 385.5,324.5 Z"/></g>
<g><path style="opacity:0.447" fill="#3b332e" d="M 257.5,337.5 C 253.176,342.125 248.843,346.792 244.5,351.5C 243.609,350.89 242.609,350.557 241.5,350.5C 246.091,345.211 251.424,340.877 257.5,337.5 Z"/></g>
<g><path style="opacity:1" fill="#e17c53" d="M 263.5,332.5 C 263.108,334.179 262.608,335.846 262,337.5C 250.748,348.752 239.414,360.086 228,371.5C 227.805,370.181 227.972,368.847 228.5,367.5C 234.14,362.527 239.473,357.194 244.5,351.5C 248.843,346.792 253.176,342.125 257.5,337.5C 259.5,335.833 261.5,334.167 263.5,332.5 Z"/></g>
<g><path style="opacity:0.51" fill="#773d16" d="M 373.5,345.5 C 370.264,348.281 367.264,351.281 364.5,354.5C 365.93,349.948 368.93,346.948 373.5,345.5 Z"/></g>
<g><path style="opacity:0.098" fill="#0e0e0e" d="M 241.5,350.5 C 241.5,351.833 240.833,352.5 239.5,352.5C 239.833,351.5 240.5,350.833 241.5,350.5 Z"/></g>
<g><path style="opacity:0.11" fill="#111111" d="M 233.5,358.5 C 233.5,359.167 233.5,359.833 233.5,360.5C 232.833,360.5 232.167,360.5 231.5,360.5C 231.833,359.5 232.5,358.833 233.5,358.5 Z"/></g>
<g><path style="opacity:0.6" fill="#87634c" d="M 241.5,350.5 C 242.609,350.557 243.609,350.89 244.5,351.5C 239.473,357.194 234.14,362.527 228.5,367.5C 227.833,367.833 227.167,368.167 226.5,368.5C 226.5,367.833 226.5,367.167 226.5,366.5C 226.5,365.833 226.833,365.5 227.5,365.5C 230.089,364.581 232.089,362.914 233.5,360.5C 233.5,359.833 233.5,359.167 233.5,358.5C 235.167,356.167 237.167,354.167 239.5,352.5C 240.833,352.5 241.5,351.833 241.5,350.5 Z"/></g>
<g><path style="opacity:1" fill="#c5c4c4" d="M 231.5,360.5 C 232.167,360.5 232.833,360.5 233.5,360.5C 232.089,362.914 230.089,364.581 227.5,365.5C 228.833,363.833 230.167,362.167 231.5,360.5 Z"/></g>
<g><path style="opacity:0.212" fill="#29201a" d="M 387.5,331.5 C 387.833,331.5 388.167,331.5 388.5,331.5C 388.5,332.167 388.5,332.833 388.5,333.5C 387.5,333.833 386.833,334.5 386.5,335.5C 384.833,336.5 383.5,337.833 382.5,339.5C 369.416,352.587 356.083,365.254 342.5,377.5C 343.449,375.223 344.782,373.223 346.5,371.5C 352.5,365.833 358.5,360.167 364.5,354.5C 367.264,351.281 370.264,348.281 373.5,345.5C 373.833,344.5 374.5,343.833 375.5,343.5C 379.5,340.167 383.167,336.5 386.5,332.5C 386.5,331.833 386.833,331.5 387.5,331.5 Z"/></g>
<g><path style="opacity:0.11" fill="#111111" d="M 225.5,366.5 C 225.5,367.833 224.833,368.5 223.5,368.5C 223.833,367.5 224.5,366.833 225.5,366.5 Z"/></g>
<g><path style="opacity:0.102" fill="#0f0f0f" d="M 223.5,368.5 C 223.5,369.833 222.833,370.5 221.5,370.5C 221.833,369.5 222.5,368.833 223.5,368.5 Z"/></g>
<g><path style="opacity:0.106" fill="#101010" d="M 221.5,370.5 C 221.5,371.833 220.833,372.5 219.5,372.5C 219.833,371.5 220.5,370.833 221.5,370.5 Z"/></g>
<g><path style="opacity:1" fill="#efe6e2" d="M 225.5,366.5 C 225.833,366.5 226.167,366.5 226.5,366.5C 226.5,367.167 226.5,367.833 226.5,368.5C 226.167,369.167 225.833,369.833 225.5,370.5C 220.5,375.167 215.5,379.833 210.5,384.5C 209.662,384.158 209.328,383.492 209.5,382.5C 210.833,382.5 211.5,381.833 211.5,380.5C 212.833,380.5 213.5,379.833 213.5,378.5C 214.833,378.5 215.5,377.833 215.5,376.5C 216.833,376.5 217.5,375.833 217.5,374.5C 218.833,374.5 219.5,373.833 219.5,372.5C 220.833,372.5 221.5,371.833 221.5,370.5C 222.833,370.5 223.5,369.833 223.5,368.5C 224.833,368.5 225.5,367.833 225.5,366.5 Z"/></g>
<g><path style="opacity:0.098" fill="#0e0e0e" d="M 219.5,372.5 C 219.5,373.833 218.833,374.5 217.5,374.5C 217.833,373.5 218.5,372.833 219.5,372.5 Z"/></g>
<g><path style="opacity:0.718" fill="#8f8f8f" d="M 349.5,374.5 C 349.783,373.711 350.283,373.044 351,372.5C 351.528,373.816 351.028,374.483 349.5,374.5 Z"/></g>
<g><path style="opacity:0.09" fill="#0c0c0c" d="M 217.5,374.5 C 217.5,375.833 216.833,376.5 215.5,376.5C 215.833,375.5 216.5,374.833 217.5,374.5 Z"/></g>
<g><path style="opacity:0.09" fill="#0d0d0d" d="M 215.5,376.5 C 215.5,377.833 214.833,378.5 213.5,378.5C 213.833,377.5 214.5,376.833 215.5,376.5 Z"/></g>
<g><path style="opacity:0.094" fill="#0d0d0d" d="M 213.5,378.5 C 213.5,379.833 212.833,380.5 211.5,380.5C 211.833,379.5 212.5,378.833 213.5,378.5 Z"/></g>
<g><path style="opacity:0.004" fill="#060402" d="M 341.5,378.5 C 341.5,379.833 340.833,380.5 339.5,380.5C 339.833,379.5 340.5,378.833 341.5,378.5 Z"/></g>
<g><path style="opacity:0.09" fill="#0d0d0d" d="M 211.5,380.5 C 211.5,381.833 210.833,382.5 209.5,382.5C 209.833,381.5 210.5,380.833 211.5,380.5 Z"/></g>
<g><path style="opacity:0.004" fill="#060302" d="M 336.5,383.5 C 336.5,384.833 335.833,385.5 334.5,385.5C 334.833,384.5 335.5,383.833 336.5,383.5 Z"/></g>
<g><path style="opacity:0.29" fill="#423c38" d="M 209.5,382.5 C 209.328,383.492 209.662,384.158 210.5,384.5C 202.5,392.833 194.5,401.167 186.5,409.5C 184.36,411.458 182.027,413.125 179.5,414.5C 188.428,402.902 198.428,392.236 209.5,382.5 Z"/></g>
<g><path style="opacity:1" fill="#f29777" d="M 225.5,370.5 C 225.657,371.873 225.49,373.207 225,374.5C 218.271,381.397 211.438,388.063 204.5,394.5C 198.258,399.236 192.424,404.569 187,410.5C 186.601,410.272 186.435,409.938 186.5,409.5C 194.5,401.167 202.5,392.833 210.5,384.5C 215.5,379.833 220.5,375.167 225.5,370.5 Z"/></g>
<g><path style="opacity:1" fill="#f18258" d="M 204.5,394.5 C 196.838,402.995 188.671,410.995 180,418.5C 179.51,419.793 179.343,421.127 179.5,422.5C 177.824,421.817 177.157,420.483 177.5,418.5C 178.167,417.167 178.833,415.833 179.5,414.5C 182.027,413.125 184.36,411.458 186.5,409.5C 186.435,409.938 186.601,410.272 187,410.5C 192.424,404.569 198.258,399.236 204.5,394.5 Z"/></g>
<g><path style="opacity:0.129" fill="#42281d" d="M 314.5,405.5 C 311.833,408.833 308.833,411.833 305.5,414.5C 307.5,410.5 310.5,407.5 314.5,405.5 Z"/></g>
<g><path style="opacity:0.941" fill="#77340a" d="M 941.5,417.5 C 944.726,418.877 945.059,420.543 942.5,422.5C 942.371,420.784 942.038,419.117 941.5,417.5 Z"/></g>
<g><path style="opacity:0.004" fill="#060302" d="M 297.5,422.5 C 297.5,423.833 296.833,424.5 295.5,424.5C 295.833,423.5 296.5,422.833 297.5,422.5 Z"/></g>
<g><path style="opacity:0.325" fill="#6b4f3b" d="M 176.5,423.5 C 194.167,440.833 211.833,458.167 229.5,475.5C 230.11,476.391 230.443,477.391 230.5,478.5C 211.782,460.783 193.782,442.449 176.5,423.5 Z"/></g>
<g><path style="opacity:0.153" fill="#1c1917" d="M 179.5,414.5 C 178.833,415.833 178.167,417.167 177.5,418.5C 175.403,419.879 175.07,421.545 176.5,423.5C 193.782,442.449 211.782,460.783 230.5,478.5C 233.565,480.785 236.898,481.118 240.5,479.5C 238.665,482.535 235.998,483.701 232.5,483C 213.333,463.833 194.167,444.667 175,425.5C 172.158,419.866 173.658,416.2 179.5,414.5 Z"/></g>
<g><path style="opacity:0.776" fill="#cb5917" d="M 177.5,418.5 C 177.157,420.483 177.824,421.817 179.5,422.5C 196.802,438.803 213.469,455.803 229.5,473.5C 229.5,474.167 229.5,474.833 229.5,475.5C 211.833,458.167 194.167,440.833 176.5,423.5C 175.07,421.545 175.403,419.879 177.5,418.5 Z"/></g>
<g><path style="opacity:0.004" fill="#060302" d="M 291.5,428.5 C 291.5,429.833 290.833,430.5 289.5,430.5C 289.833,429.5 290.5,428.833 291.5,428.5 Z"/></g>
<g><path style="opacity:1" fill="#f86800" d="M 434.5,432.5 C 519.833,432.5 605.167,432.5 690.5,432.5C 690.829,461.407 690.495,490.24 689.5,519C 604.167,519.5 518.834,519.667 433.5,519.5C 433.175,490.426 433.509,461.426 434.5,432.5 Z"/></g>
<g><path style="opacity:0.044" fill="#12100f" d="M 346.5,435.5 C 347.993,436.312 348.66,437.645 348.5,439.5C 347.377,443.165 346.044,442.999 344.5,439C 344.978,437.697 345.645,436.531 346.5,435.5 Z"/></g>
<g><path style="opacity:0.129" fill="#381c09" d="M 270.5,449.5 C 268.833,451.833 266.833,453.833 264.5,455.5C 265.5,452.5 267.5,450.5 270.5,449.5 Z"/></g>
<g><path style="opacity:0.129" fill="#361b09" d="M 264.5,455.5 C 263.833,456.833 262.833,457.833 261.5,458.5C 261.5,456.5 262.5,455.5 264.5,455.5 Z"/></g>
<g><path style="opacity:1" fill="#f69678" d="M 256.5,460.5 C 250.949,466.568 245.616,472.901 240.5,479.5C 236.898,481.118 233.565,480.785 230.5,478.5C 230.443,477.391 230.11,476.391 229.5,475.5C 229.5,474.833 229.5,474.167 229.5,473.5C 231.296,474.793 232.963,476.293 234.5,478C 235.5,478.667 236.5,478.667 237.5,478C 243.403,471.593 249.737,465.759 256.5,460.5 Z"/></g>
<g><path style="opacity:0.043" fill="#291708" d="M 256.5,460.5 C 257.5,460.5 258.5,460.5 259.5,460.5C 253.527,467.14 247.194,473.473 240.5,479.5C 245.616,472.901 250.949,466.568 256.5,460.5 Z"/></g>
<g><path style="opacity:0.082" fill="#110f0e" d="M 86.5,87.5 C 86.3333,259.834 86.5,432.167 87,604.5C 87.5,605 88,605.5 88.5,606C 144.167,606.667 199.833,606.667 255.5,606C 256.108,605.13 256.941,604.63 258,604.5C 259.054,605.482 259.554,606.649 259.5,608C 288.833,608.667 318.167,608.667 347.5,608C 346.007,606.844 346.174,606.01 348,605.5C 521.973,606.165 695.806,606.831 869.5,607.5C 695.497,606.835 521.83,607.501 348.5,609.5C 347.5,609.5 346.5,609.5 345.5,609.5C 317.167,609.5 288.833,609.5 260.5,609.5C 259.833,609.5 259.167,609.5 258.5,609.5C 258.389,608.883 258.056,608.383 257.5,608C 200.833,607.667 144.167,607.333 87.5,607C 86.9558,606.283 86.2891,605.783 85.5,605.5C 85.167,432.666 85.5003,259.999 86.5,87.5 Z"/></g>
<g><path style="opacity:0.408" fill="#7b7470" d="M 85.5,605.5 C 86.2891,605.783 86.9558,606.283 87.5,607C 144.167,607.333 200.833,607.667 257.5,608C 258.056,608.383 258.389,608.883 258.5,609.5C 200.49,610.163 142.824,609.496 85.5,607.5C 85.5,606.833 85.5,606.167 85.5,605.5 Z"/></g>
<g><path style="opacity:0.408" fill="#79736f" d="M 869.5,607.5 C 870.791,607.263 871.791,607.596 872.5,608.5C 872.5,608.833 872.5,609.167 872.5,609.5C 697.833,609.5 523.167,609.5 348.5,609.5C 521.83,607.501 695.497,606.835 869.5,607.5 Z"/></g>
<g><path style="opacity:1" fill="#fa845a" d="M 83.5,607.5 C 83.8333,607.5 84.1667,607.5 84.5,607.5C 84.8333,607.5 85.1667,607.5 85.5,607.5C 142.824,609.496 200.49,610.163 258.5,609.5C 259.167,609.5 259.833,609.5 260.5,609.5C 260.5,610.167 260.167,610.5 259.5,610.5C 201.875,611.492 144.208,611.825 86.5,611.5C 84.9731,611.573 83.9731,610.906 83.5,609.5C 83.5,608.833 83.5,608.167 83.5,607.5 Z"/></g>
<g><path style="opacity:1" fill="#fa7a4c" d="M 348.5,610.5 C 522.861,610.171 697.195,610.504 871.5,611.5C 871.5,611.833 871.5,612.167 871.5,612.5C 870.5,612.5 869.5,612.5 868.5,612.5C 868.167,612.5 867.833,612.5 867.5,612.5C 694.5,611.833 521.5,611.167 348.5,610.5 Z"/></g>
<g><path style="opacity:1" fill="#fdb39c" d="M 345.5,609.5 C 346.5,609.5 347.5,609.5 348.5,609.5C 523.167,609.5 697.833,609.5 872.5,609.5C 922.167,609.5 971.833,609.5 1021.5,609.5C 1021.5,609.833 1021.5,610.167 1021.5,610.5C 971.669,611.499 921.669,611.832 871.5,611.5C 697.195,610.504 522.861,610.171 348.5,610.5C 347.833,610.5 347.167,610.5 346.5,610.5C 345.833,610.5 345.5,610.167 345.5,609.5 Z"/></g>
<g><path style="opacity:1" fill="#fa6d2a" d="M 259.5,610.5 C 231.008,611.833 202.174,612.5 173,612.5C 143.998,612.5 115.165,612.167 86.5,611.5C 144.208,611.825 201.875,611.492 259.5,610.5 Z"/></g>
<g><path style="opacity:1" fill="#fa6e2b" d="M 346.5,610.5 C 347.167,610.5 347.833,610.5 348.5,610.5C 521.5,611.167 694.5,611.833 867.5,612.5C 694.166,612.667 520.833,612.5 347.5,612C 346.944,611.617 346.611,611.117 346.5,610.5 Z"/></g>
<g><path style="opacity:1" fill="#f28c6c" d="M 1021.5,610.5 C 1028.17,610.5 1034.83,610.5 1041.5,610.5C 1042.17,611.167 1042.83,611.833 1043.5,612.5C 986.167,612.5 928.833,612.5 871.5,612.5C 871.5,612.167 871.5,611.833 871.5,611.5C 921.669,611.832 971.669,611.499 1021.5,610.5 Z"/></g>
<g><path style="opacity:1" fill="#fa7338" d="M 868.5,612.5 C 869.5,612.5 870.5,612.5 871.5,612.5C 928.833,612.5 986.167,612.5 1043.5,612.5C 1043.39,613.117 1043.06,613.617 1042.5,614C 985.5,614.667 928.5,614.667 871.5,614C 870.263,613.768 869.263,613.268 868.5,612.5 Z"/></g>
<g><path style="opacity:0.216" fill="#4e3c30" d="M 1130.5,628.5 C 1130.5,630.833 1130.5,633.167 1130.5,635.5C 1128.45,640.61 1126.11,645.61 1123.5,650.5C 1122.5,651.167 1121.5,651.833 1120.5,652.5C 1124.42,644.677 1127.75,636.677 1130.5,628.5 Z"/></g>
<g><path style="opacity:0.941" fill="#cb5706" d="M 10.5,653.5 C 18.477,660.973 26.477,668.806 34.5,677C 38.6815,680.249 43.3481,682.915 48.5,685C 49.8228,685.816 50.4894,686.983 50.5,688.5C 48.3453,688.628 46.3453,688.128 44.5,687C 30.6684,678.335 19.335,667.168 10.5,653.5 Z"/></g>
<g><path style="opacity:0.631" fill="#a84b09" d="M 1113.5,663.5 C 1108.83,668.833 1103.83,673.833 1098.5,678.5C 1102.5,672.5 1107.5,667.5 1113.5,663.5 Z"/></g>
<g><path style="opacity:0.02" fill="#1a1816" d="M 1123.5,650.5 C 1121.62,655.265 1119.45,659.932 1117,664.5C 1110.83,670.667 1104.67,676.833 1098.5,683C 1089.79,687.02 1081.45,691.52 1073.5,696.5C 1071.5,696.5 1069.5,696.5 1067.5,696.5C 1072,695.583 1076,693.583 1079.5,690.5C 1083,688.25 1086.67,686.25 1090.5,684.5C 1092.92,683.97 1095.26,683.136 1097.5,682C 1103.64,675.86 1109.81,669.694 1116,663.5C 1118.07,660.029 1119.57,656.362 1120.5,652.5C 1121.5,651.833 1122.5,651.167 1123.5,650.5 Z"/></g>
<g><path style="opacity:0.318" fill="#695242" d="M 1120.5,652.5 C 1119.57,656.362 1118.07,660.029 1116,663.5C 1109.81,669.694 1103.64,675.86 1097.5,682C 1095.26,683.136 1092.92,683.97 1090.5,684.5C 1090.5,684.167 1090.5,683.833 1090.5,683.5C 1093.5,682.334 1096.17,680.667 1098.5,678.5C 1103.83,673.833 1108.83,668.833 1113.5,663.5C 1114.17,662.5 1114.83,661.5 1115.5,660.5C 1117.17,657.833 1118.83,655.167 1120.5,652.5 Z"/></g>
<g><path style="opacity:0.145" fill="#39302a" d="M -0.5,627.5 C 1.27985,635.839 4.61319,643.505 9.5,650.5C 9.55688,651.609 9.89022,652.609 10.5,653.5C 19.335,667.168 30.6684,678.335 44.5,687C 46.3453,688.128 48.3453,688.628 50.5,688.5C 51.0577,689.79 52.0577,690.623 53.5,691C 60.7518,693.678 68.0851,695.511 75.5,696.5C 70.8333,696.5 66.1667,696.5 61.5,696.5C 31.7212,686.387 11.0545,666.721 -0.5,637.5C -0.5,634.167 -0.5,630.833 -0.5,627.5 Z"/></g>
<g><path style="opacity:0.345" fill="#66564b" d="M 1079.5,690.5 C 1076,693.583 1072,695.583 1067.5,696.5C 1065.17,696.5 1062.83,696.5 1060.5,696.5C 1066.87,694.935 1073.2,692.935 1079.5,690.5 Z"/></g>
<g><path style="opacity:0.761" fill="#ad4d07" d="M 50.5,688.5 C 53.1873,688.336 55.854,688.503 58.5,689C 61.9229,691.818 65.9229,693.318 70.5,693.5C 159.338,693.834 248.005,694.834 336.5,696.5C 249.5,696.5 162.5,696.5 75.5,696.5C 68.0851,695.511 60.7518,693.678 53.5,691C 52.0577,690.623 51.0577,689.79 50.5,688.5 Z"/></g>
<g><path style="opacity:0.902" fill="#de5d00" d="M 1090.5,683.5 C 1090.5,683.833 1090.5,684.167 1090.5,684.5C 1086.67,686.25 1083,688.25 1079.5,690.5C 1073.2,692.935 1066.87,694.935 1060.5,696.5C 819.167,696.5 577.833,696.5 336.5,696.5C 248.005,694.834 159.338,693.834 70.5,693.5C 160.557,693.008 250.557,693.508 340.5,695C 578.167,695.667 815.833,695.667 1053.5,695C 1064.81,693.837 1075.14,690.17 1084.5,684C 1086.47,683.505 1088.47,683.338 1090.5,683.5 Z"/></g>
</svg>
